<svg width="1238" height="1117" viewBox="0 0 1238 1117" fill="none" xmlns="http://www.w3.org/2000/svg">
<g clip-path="url(#clip0_769_277)">
<rect width="1238" height="1117" fill="#D8711E"/>
<circle cx="163" cy="716" r="41" stroke="#F78427" stroke-opacity="0.31" stroke-width="20"/>
<circle cx="887" cy="716" r="41" stroke="#F78427" stroke-opacity="0.31" stroke-width="20"/>
<circle cx="521" cy="944" r="41" stroke="#F78427" stroke-opacity="0.31" stroke-width="20"/>
<rect x="284" y="913" width="63" height="238" rx="31.5" transform="rotate(90 284 913)" fill="#FFF9F3" fill-opacity="0.05"/>
<rect x="272" y="1046" width="63" height="238" rx="31.5" transform="rotate(90 272 1046)" fill="#FFF9F3" fill-opacity="0.1"/>
<rect x="132" y="808" width="63" height="238" rx="31.5" transform="rotate(90 132 808)" fill="#FFF9F3" fill-opacity="0.1"/>
<rect x="594" y="684" width="63" height="238" rx="31.5" transform="rotate(90 594 684)" fill="#FFF9F3" fill-opacity="0.05"/>
<rect x="866" y="805" width="63" height="238" rx="31.5" transform="rotate(90 866 805)" fill="#FFF9F3" fill-opacity="0.05"/>
<rect x="1222" y="805" width="63" height="238" rx="31.5" transform="rotate(90 1222 805)" fill="#FFF9F3" fill-opacity="0.05"/>
<rect x="996" y="913" width="63" height="238" rx="31.5" transform="rotate(90 996 913)" fill="#FFF9F3" fill-opacity="0.05"/>
<rect x="1352" y="913" width="63" height="238" rx="31.5" transform="rotate(90 1352 913)" fill="#FFF9F3" fill-opacity="0.05"/>
<rect x="1429" y="684" width="63" height="326" rx="31.5" transform="rotate(90 1429 684)" fill="#FFF9F3" fill-opacity="0.05"/>
<rect x="1416" y="527" width="63" height="326" rx="31.5" transform="rotate(90 1416 527)" fill="#FFF9F3" fill-opacity="0.05"/>
<rect x="510" y="805" width="63" height="238" rx="31.5" transform="rotate(90 510 805)" fill="#FFF9F3" fill-opacity="0.05"/>
<rect x="223" y="527" width="63" height="238" rx="31.5" transform="rotate(90 223 527)" fill="#FFF9F3" fill-opacity="0.05"/>
<rect x="537" y="1046" width="49" height="169" rx="24.5" transform="rotate(90 537 1046)" fill="#FFF9F3" fill-opacity="0.05"/>
<rect x="1238" y="1046" width="49" height="169" rx="24.5" transform="rotate(90 1238 1046)" fill="#FFF9F3" fill-opacity="0.05"/>
<rect x="887" y="1046" width="49" height="169" rx="24.5" transform="rotate(90 887 1046)" fill="#FFF9F3" fill-opacity="0.05"/>
</g>
<defs>
<clipPath id="clip0_769_277">
<rect width="1238" height="1117" fill="white"/>
</clipPath>
</defs>
</svg>
